<svg xmlns="http://www.w3.org/2000/svg" viewBox="0 0 800 600">
  <!-- Background -->
  <rect width="800" height="600" fill="#F0F2F5"/>
  
  <!-- Header -->
  <rect x="0" y="0" width="800" height="60" fill="#5D4A66"/>
  <text x="40" y="38" font-family="Arial" font-size="22" font-weight="bold" fill="white">Idle Paws</text>
  
  <!-- Header buttons -->
  <circle cx="720" cy="30" r="15" fill="#FF7F50"/>
  <text x="720" y="35" font-family="Arial" font-size="16" fill="white" text-anchor="middle">?</text>
  
  <circle cx="755" cy="30" r="15" fill="#FF7F50"/>
  <text x="755" y="35" font-family="Arial" font-size="16" fill="white" text-anchor="middle">⚙</text>
  
  <circle cx="780" cy="30" r="15" fill="#FF7F50"/>
  <text x="780" y="35" font-family="Arial" font-size="16" fill="white" text-anchor="middle">👤</text>
  
  <!-- Left Sidebar -->
  <rect x="0" y="60" width="200" height="510" fill="#3D4A5C"/>
  
  <!-- Navigation Menu -->
  <rect x="20" y="180" width="160" height="40" rx="5" fill="#4D5A6C"/>
  <text x="100" y="205" font-family="Arial" font-size="14" fill="white" text-anchor="middle">Home</text>
  
  <rect x="20" y="230" width="160" height="40" rx="5" fill="#4D5A6C"/>
  <text x="100" y="255" font-family="Arial" font-size="14" fill="white" text-anchor="middle">Catropolis</text>
  
  <rect x="20" y="280" width="160" height="40" rx="5" fill="#4D5A6C"/>
  <text x="100" y="305" font-family="Arial" font-size="14" fill="white" text-anchor="middle">Inventory</text>
  
  <rect x="20" y="330" width="160" height="40" rx="5" fill="#4D5A6C"/>
  <text x="100" y="355" font-family="Arial" font-size="14" fill="white" text-anchor="middle">Resources ▶</text>
  
  <rect x="20" y="380" width="160" height="40" rx="5" fill="#FF7F50"/>
  <text x="100" y="405" font-family="Arial" font-size="14" fill="white" text-anchor="middle">Exploration ▶</text>
  
  <rect x="20" y="430" width="160" height="40" rx="5" fill="#4D5A6C"/>
  <text x="100" y="455" font-family="Arial" font-size="14" fill="white" text-anchor="middle">Population</text>
  
  <rect x="20" y="480" width="160" height="40" rx="5" fill="#4D5A6C"/>
  <text x="100" y="505" font-family="Arial" font-size="14" fill="white" text-anchor="middle">Skills</text>

  <!-- Main Content - Map Panel -->
  <rect x="200" y="60" width="400" height="510" fill="#E6E9EF"/>
  
  <!-- Map Title -->
  <text x="220" y="90" font-family="Arial" font-size="20" font-weight="bold" fill="#333333">Exploration Map</text>
  
  <!-- Map Navigation Tabs -->
  <rect x="220" y="105" width="100" height="30" rx="5" fill="#5D4A66"/>
  <text x="270" y="125" font-family="Arial" font-size="14" fill="white" text-anchor="middle">Map</text>
  
  <rect x="330" y="105" width="100" height="30" rx="5" fill="#BBBBBB"/>
  <text x="380" y="125" font-family="Arial" font-size="14" fill="#333333" text-anchor="middle">Expedition</text>
  
  <rect x="440" y="105" width="100" height="30" rx="5" fill="#BBBBBB"/>
  <text x="490" y="125" font-family="Arial" font-size="14" fill="#333333" text-anchor="middle">History</text>
  
  <!-- Map Visualization -->
  <rect x="220" y="145" width="360" height="360" rx="5" fill="white"/>
  
  <!-- Garden Area (Starting Location) -->
  <circle cx="340" cy="275" r="30" fill="#81C784"/>
  <text x="340" y="279" font-family="Arial" font-size="12" fill="white" text-anchor="middle">Garden</text>
  <text x="340" y="294" font-family="Arial" font-size="10" fill="white" text-anchor="middle">Home</text>
  
  <!-- Forest Edge Area -->
  <circle cx="420" cy="225" r="25" fill="#81C784"/>
  <text x="420" y="229" font-family="Arial" font-size="12" fill="white" text-anchor="middle">Forest</text>
  <text x="420" y="244" font-family="Arial" font-size="10" fill="white" text-anchor="middle">Edge</text>
  
  <!-- Riverside Area -->
  <circle cx="470" cy="305" r="25" fill="#D3D3D3"/>
  <text x="470" y="309" font-family="Arial" font-size="12" fill="#333333" text-anchor="middle">River</text>
  <text x="470" y="324" font-family="Arial" font-size="10" fill="#333333" text-anchor="middle">side</text>
  <circle cx="485" cy="290" r="8" fill="#AAAAAA">
    <set attributeName="opacity" to="0.6" dur="2s" repeatCount="indefinite" />
  </circle>
  
  <!-- Abandoned Lot -->
  <circle cx="380" cy="365" r="25" fill="#D3D3D3"/>
  <text x="380" y="369" font-family="Arial" font-size="12" fill="#333333" text-anchor="middle">Abandoned</text>
  <text x="380" y="384" font-family="Arial" font-size="10" fill="#333333" text-anchor="middle">Lot</text>
  <text x="380" y="400" font-family="Arial" font-size="14" fill="#666666" text-anchor="middle">🔒</text>
  
  <!-- Ancient Ruins -->
  <circle cx="290" cy="195" r="25" fill="#D3D3D3"/>
  <text x="290" y="199" font-family="Arial" font-size="12" fill="#333333" text-anchor="middle">Ancient</text>
  <text x="290" y="214" font-family="Arial" font-size="10" fill="#333333" text-anchor="middle">Ruins</text>
  <text x="290" y="230" font-family="Arial" font-size="14" fill="#666666" text-anchor="middle">🔒</text>
  
  <!-- Connecting Paths -->
  <path d="M 340 275 L 420 225" stroke="#81C784" stroke-width="3" stroke-dasharray="none"/>
  <path d="M 420 225 L 470 305" stroke="#81C784" stroke-width="3" stroke-dasharray="5,5"/>
  <path d="M 340 275 L 380 365" stroke="#BBBBBB" stroke-width="3" stroke-dasharray="5,5"/>
  <path d="M 340 275 L 290 195" stroke="#BBBBBB" stroke-width="3" stroke-dasharray="5,5"/>
  
  <!-- Selected Area Indicator -->
  <circle cx="420" cy="225" r="30" fill="none" stroke="#FF7F50" stroke-width="3"/>
  
  <!-- Map Controls -->
  <rect x="220" y="515" width="110" height="40" rx="5" fill="#5D4A66"/>
  <text x="275" y="537" font-family="Arial" font-size="14" fill="white" text-anchor="middle">Scout</text>
  
  <rect x="340" y="515" width="110" height="40" rx="5" fill="#5D4A66"/>
  <text x="395" y="537" font-family="Arial" font-size="14" fill="white" text-anchor="middle">Explore</text>
  
  <rect x="460" y="515" width="120" height="40" rx="5" fill="#FF7F50"/>
  <text x="520" y="537" font-family="Arial" font-size="14" fill="white" text-anchor="middle">Relocate Base</text>
  
  <!-- Right Panel - Area Details -->
  <rect x="600" y="60" width="200" height="510" fill="white"/>
  
  <!-- Area Title -->
  <rect x="610" y="70" width="180" height="50" rx="5" fill="#E6E9EF"/>
  <text x="700" y="102" font-family="Arial" font-size="18" font-weight="bold" fill="#333333" text-anchor="middle">Forest Edge</text>
  
  <!-- Area Status -->
  <rect x="610" y="130" width="180" height="60" rx="5" fill="#E6E9EF"/>
  <text x="625" y="150" font-family="Arial" font-size="14" fill="#333333">Status: Unlocked</text>
  <text x="625" y="175" font-family="Arial" font-size="14" fill="#333333">Explored: 2/4 spots</text>
  
  <!-- Resource Bonuses -->
  <rect x="610" y="200" width="180" height="80" rx="5" fill="#E6E9EF"/>
  <text x="700" y="220" font-family="Arial" font-size="14" font-weight="bold" fill="#333333" text-anchor="middle">Resource Bonuses</text>
  <text x="625" y="240" font-family="Arial" font-size="12" fill="#333333">Twigs: +25%</text>
  <text x="625" y="260" font-family="Arial" font-size="12" fill="#333333">Leaves: +20%</text>
  <text x="625" y="280" font-family="Arial" font-size="12" fill="#333333">Spider Silk: +15%</text>
  
  <!-- Gathering Spots -->
  <rect x="610" y="290" width="180" height="180" rx="5" fill="#E6E9EF"/>
  <text x="700" y="310" font-family="Arial" font-size="14" font-weight="bold" fill="#333333" text-anchor="middle">Gathering Spots</text>
  
  <!-- Spot 1 -->
  <rect x="620" y="320" width="160" height="40" rx="5" fill="white"/>
  <circle cx="635" cy="340" r="10" fill="#81C784"/>
  <text x="655" y="335" font-family="Arial" font-size="12" fill="#333333">Tall Trees</text>
  <text x="655" y="350" font-family="Arial" font-size="10" fill="#81C784">Unlocked</text>
  
  <!-- Spot 2 -->
  <rect x="620" y="370" width="160" height="40" rx="5" fill="white"/>
  <circle cx="635" cy="390" r="10" fill="#81C784"/>
  <text x="655" y="385" font-family="Arial" font-size="12" fill="#333333">Hollow Log</text>
  <text x="655" y="400" font-family="Arial" font-size="10" fill="#81C784">Unlocked</text>
  
  <!-- Spot 3 -->
  <rect x="620" y="420" width="160" height="40" rx="5" fill="white"/>
  <circle cx="635" cy="440" r="10" fill="#FF7F50" fill-opacity="0.5"/>
  <text x="655" y="435" font-family="Arial" font-size="12" fill="#333333">Spider Corner</text>
  <text x="655" y="450" font-family="Arial" font-size="10" fill="#FF7F50">Need 50 Twigs</text>
  
  <!-- Requirements to Next Area -->
  <rect x="610" y="480" width="180" height="80" rx="5" fill="#E6E9EF"/>
  <text x="700" y="500" font-family="Arial" font-size="14" font-weight="bold" fill="#333333" text-anchor="middle">Next Area: Riverside</text>
  <text x="625" y="520" font-family="Arial" font-size="12" fill="#333333">Requires: Lvl 4 Colony</text>
  <text x="625" y="540" font-family="Arial" font-size="12" fill="#333333">Needs: 2 Explorer Cats</text>
  <text x="625" y="560" font-family="Arial" font-size="12" fill="#333333">Cost: 100 Catnip, 50 Twigs</text>
  
  <!-- Status Bar -->
  <rect x="0" y="570" width="800" height="30" fill="#3D4A5C"/>
  <text x="20" y="590" font-family="Arial" font-size="12" fill="white">Day 7 - Afternoon</text>
  <text x="400" y="590" font-family="Arial" font-size="12" fill="white" text-anchor="middle">Energy: 75/100</text>
  <text x="780" y="590" font-family="Arial" font-size="12" fill="white" text-anchor="end">Catnip: 124</text>
</svg>
